# xmcd
#
# Track frame offsets: 
#        182
#        10972
#        21750
#        32790
#        45075
#        54707
#        62555
#        73047
#        84720
#        94842
#        106372
#        117462
#        132912
#        142782
#        151685
#        167317
#        176277
#
# Disc length: 2579 seconds
#
# Revision: 0
# Processed by: cddbd v1.4PL0 Copyright (c) Steve Scherf et al.
# Submitted via: ExactAudioCopy v0.95a4
#
DISCID=d00a1111
DTITLE=Clyde McPhatter - Forgotten Angel Disc Two
DYEAR=1900
DGENRE=Soul
TTITLE0=Just to Hold My Hand
TTITLE1=You'll Be There
TTITLE2=Long Lonely Nights
TTITLE3=No Love Like Her Love
TTITLE4=That's Enough For Me
TTITLE5=Come What May
TTITLE6=Deep Sea Ball
TTITLE7=A Lover's Question
TTITLE8=I Can't Stand Up Alone
TTITLE9=Lovey Dovey
TTITLE10=Since You've Been Gone
TTITLE11=Money Honey
TTITLE12=Treasure of Love
TTITLE13=Lover Please
TTITLE14=Lucille
TTITLE15=Have Mercy Baby
TTITLE16=Without Love (There is Nothing)
EXTD=
EXTT0=
EXTT1=
EXTT2=
EXTT3=
EXTT4=
EXTT5=
EXTT6=
EXTT7=
EXTT8=
EXTT9=
EXTT10=
EXTT11=
EXTT12=
EXTT13=
EXTT14=
EXTT15=
EXTT16=
PLAYORDER=
